<svg width="12" height="13" viewBox="0 0 12 13" fill="none" xmlns="http://www.w3.org/2000/svg">
<path d="M10.0824 12.3C10.8653 12.3 11.5 11.718 11.5 11C11.5 10.282 10.8653 9.7 10.0824 9.7C9.29942 9.7 8.6647 10.282 8.6647 11C8.6647 11.718 9.29942 12.3 10.0824 12.3Z" stroke="#C1C1C1"/>
<path d="M1.91765 3.75001C2.70058 3.75001 3.3353 3.16797 3.3353 2.45001C3.3353 1.73204 2.70058 1.15001 1.91765 1.15001C1.1347 1.15001 0.5 1.73204 0.5 2.45001C0.5 3.16797 1.1347 3.75001 1.91765 3.75001Z" stroke="#C1C1C1"/>
<path d="M1.91765 12.05C2.70058 12.05 3.3353 11.468 3.3353 10.75C3.3353 10.0321 2.70058 9.45001 1.91765 9.45001C1.1347 9.45001 0.5 10.0321 0.5 10.75C0.5 11.468 1.1347 12.05 1.91765 12.05Z" stroke="#C1C1C1"/>
<path d="M1.90232 4.04996V9.84997" stroke="#C1C1C1"/>
<path d="M5.5 2.94998L9.21461 2.94998C9.99755 2.94998 10 3.98204 10 4.7V9.85001" stroke="#C1C1C1"/>
<path d="M7.12648 4.89999L5 2.94998L7.12648 0.999978" stroke="#C1C1C1"/>
</svg>
