<svg width="12" height="15" viewBox="0 0 12 15" fill="none" xmlns="http://www.w3.org/2000/svg">
<path d="M0.5 1.20001H11.5V13.8H0.5V1.20001Z" stroke="#C1C1C1"/>
<path d="M5.6001 9.92575C5.6001 9.61411 5.86665 9.36148 6.19545 9.36148H9.34957C9.67838 9.36148 9.94493 9.61411 9.94493 9.92575C9.94493 10.2374 9.67838 10.49 9.34957 10.49H6.19545C5.86665 10.49 5.6001 10.2374 5.6001 9.92575Z" fill="#C1C1C1"/>
<path d="M5.6001 7.51822C5.6001 7.20659 5.86665 6.95396 6.19545 6.95396H9.34957C9.67838 6.95396 9.94493 7.20659 9.94493 7.51822C9.94493 7.82986 9.67838 8.08249 9.34957 8.08249H6.19545C5.86665 8.08249 5.6001 7.82986 5.6001 7.51822Z" fill="#C1C1C1"/>
<path d="M5.6001 5.08248C5.6001 4.77085 5.86665 4.51822 6.19545 4.51822H9.34957C9.67838 4.51822 9.94493 4.77085 9.94493 5.08248C9.94493 5.39412 9.67838 5.64675 9.34957 5.64675H6.19545C5.86665 5.64675 5.6001 5.39412 5.6001 5.08248Z" fill="#C1C1C1"/>
</svg>
