<svg width="12" height="13" viewBox="0 0 12 13" fill="none" xmlns="http://www.w3.org/2000/svg">
<mask id="path-1-inside-1_387_1791" fill="white">
<path d="M12 5C11.8166 3.74032 11.2043 2.57315 10.2575 1.67826C9.31066 0.783379 8.08182 0.210432 6.76025 0.0476807C5.43869 -0.115071 4.09772 0.141401 2.9439 0.777591C1.79009 1.41378 0.887437 2.39439 0.375 3.56837M0 0.705118V3.56837H3"/>
</mask>
<path d="M11.0104 5.14409L11.1545 6.13365L13.1337 5.84548L12.9896 4.85591L11.0104 5.14409ZM-0.541495 3.16833L-0.941541 4.08482L0.891449 4.88491L1.2915 3.96842L-0.541495 3.16833ZM1 0.705118V-0.294882H-1V0.705118H1ZM0 3.56837H-1V4.56837H0V3.56837ZM3 4.56837H4V2.56837H3V4.56837ZM12.9896 4.85591C12.7729 3.36789 12.0506 1.99708 10.9444 0.951505L9.57059 2.40502C10.358 3.14921 10.8603 4.11276 11.0104 5.14409L12.9896 4.85591ZM10.9444 0.951505C9.83886 -0.0933644 8.41078 -0.756611 6.88248 -0.944821L6.63803 1.04018C7.75286 1.17748 8.78245 1.66012 9.57059 2.40502L10.9444 0.951505ZM6.88248 -0.944821C5.35434 -1.13301 3.80133 -0.837113 2.46106 -0.0981148L3.42675 1.6533C4.3941 1.11992 5.52304 0.902871 6.63803 1.04018L6.88248 -0.944821ZM2.46106 -0.0981148C1.12017 0.641221 0.0618001 1.78619 -0.541495 3.16833L1.2915 3.96842C1.71307 3.00259 2.46 2.18634 3.42675 1.6533L2.46106 -0.0981148ZM-1 0.705118V3.56837H1V0.705118H-1ZM0 4.56837H3V2.56837H0V4.56837Z" fill="#C1C1C1" mask="url(#path-1-inside-1_387_1791)"/>
<mask id="path-3-inside-2_387_1791" fill="white">
<path d="M0 8C0.183419 9.25968 0.795698 10.4269 1.74252 11.3217C2.68934 12.2166 3.91818 12.7896 5.23975 12.9523C6.56131 13.1151 7.90228 12.8586 9.0561 12.2224C10.2099 11.5862 11.1126 10.6056 11.625 9.43163M12 12.2949V9.43163H9"/>
</mask>
<path d="M0.989565 7.85591L0.845476 6.86635L-1.13365 7.15452L-0.989565 8.14409L0.989565 7.85591ZM12.5415 9.83167L12.9415 8.91518L11.1086 8.11509L10.7085 9.03158L12.5415 9.83167ZM11 12.2949V13.2949H13V12.2949H11ZM12 9.43163H13V8.43163H12V9.43163ZM9 8.43163H8V10.4316H9V8.43163ZM-0.989565 8.14409C-0.772896 9.63211 -0.0506348 11.0029 1.05563 12.0485L2.42941 10.595C1.64203 9.85079 1.13974 8.88724 0.989565 7.85591L-0.989565 8.14409ZM1.05563 12.0485C2.16114 13.0934 3.58922 13.7566 5.11752 13.9448L5.36197 11.9598C4.24714 11.8225 3.21755 11.3399 2.42941 10.595L1.05563 12.0485ZM5.11752 13.9448C6.64566 14.133 8.19867 13.8371 9.53894 13.0981L8.57325 11.3467C7.60589 11.8801 6.47696 12.0971 5.36197 11.9598L5.11752 13.9448ZM9.53894 13.0981C10.8798 12.3588 11.9382 11.2138 12.5415 9.83167L10.7085 9.03158C10.2869 9.99741 9.54 10.8137 8.57325 11.3467L9.53894 13.0981ZM13 12.2949V9.43163H11V12.2949H13ZM12 8.43163H9V10.4316H12V8.43163Z" fill="#C1C1C1" mask="url(#path-3-inside-2_387_1791)"/>
</svg>
