<svg width="14" height="13" viewBox="0 0 14 13" fill="none" xmlns="http://www.w3.org/2000/svg">
<path d="M1.58325 0V3.25H3.74992" stroke="#C1C1C1"/>
<mask id="path-2-inside-1_374_1439" fill="white">
<path d="M0.5 6.5C0.5 10.0899 3.41015 13 7 13C10.5899 13 13.5 10.0899 13.5 6.5C13.5 2.91015 10.5899 0 7 0C4.59435 0 2.49391 1.30686 1.36995 3.24938"/>
</mask>
<path d="M-0.5 6.5C-0.5 10.6421 2.85786 14 7 14V12C3.96243 12 1.5 9.53757 1.5 6.5H-0.5ZM7 14C11.1421 14 14.5 10.6421 14.5 6.5H12.5C12.5 9.53757 10.0376 12 7 12V14ZM14.5 6.5C14.5 2.35786 11.1421 -1 7 -1V1C10.0376 1 12.5 3.46243 12.5 6.5H14.5ZM7 -1C4.22299 -1 1.79976 0.509797 0.504396 2.74857L2.2355 3.7502C3.18805 2.10392 4.96571 1 7 1V-1Z" fill="#C1C1C1" mask="url(#path-2-inside-1_374_1439)"/>
<path d="M7.00161 2.60004L7.00122 6.5029L9.75703 9.2587" stroke="#C1C1C1"/>
</svg>
